# xmcd
#
# Track frame offsets: 
#        150
#        13668
#        38228
#        55862
#        70698
#        85176
#        107363
#        126161
#        148039
#        161894
#
# Disc length: 2348 seconds
#
# Revision: 3
# Processed by: cddbd v1.5.2PL0 Copyright (c) Steve Scherf et al.
# Submitted via: ExactAudioCopy v1.3
#
DISCID=81092a0a
DTITLE=Dan Seals - In A Quiet Room
DYEAR=1995
DGENRE=Country
TTITLE0=I'd Really Love To See You Tonight
TTITLE1=Everything That Glitters (Is Not Gold)
TTITLE2=Big Wheels In The Moonlight
TTITLE3=One Friend
TTITLE4=Bop
TTITLE5=You Still Move Me
TTITLE6=Love Is The Answer
TTITLE7=They Rage On
TTITLE8=The Healing Kind
TTITLE9=Don't Believe I'd Fall In Love Again
EXTD=
EXTT0=
EXTT1=
EXTT2=
EXTT3=
EXTT4=
EXTT5=
EXTT6=
EXTT7=
EXTT8=
EXTT9=
PLAYORDER=
